<svg viewBox="0 0 52 52" fill="none" xmlns="http://www.w3.org/2000/svg">
<path d="M50.4749 28.4749C51.8417 27.108 51.8417 24.892 50.4749 23.5251L28.201 1.25126C26.8342 -0.115572 24.6181 -0.115572 23.2513 1.25126C21.8844 2.6181 21.8844 4.83418 23.2513 6.20101L43.0503 26L23.2513 45.799C21.8844 47.1658 21.8844 49.3819 23.2513 50.7487C24.6181 52.1156 26.8342 52.1156 28.201 50.7487L50.4749 28.4749ZM46 29.5H48V22.5H46V29.5Z" fill="white"/>
<path d="M28.4749 28.4749C29.8417 27.108 29.8417 24.892 28.4749 23.5251L6.20101 1.25126C4.83418 -0.115572 2.6181 -0.115572 1.25126 1.25126C-0.115572 2.6181 -0.115572 4.83418 1.25126 6.20101L21.0503 26L1.25126 45.799C-0.115572 47.1658 -0.115572 49.3819 1.25126 50.7487C2.6181 52.1156 4.83418 52.1156 6.20101 50.7487L28.4749 28.4749ZM24 29.5H26V22.5H24V29.5Z" fill="white"/>
</svg>
