<svg viewBox="0 0 40 44" fill='white' xmlns="http://www.w3.org/2000/svg">
<path fill-rule="evenodd" clip-rule="evenodd" d="M3.49912 0H36.5009C38.4258 0 40 1.48656 40 3.30376V3.30402C40 5.12122 38.4258 6.60779 36.5009 6.60779H3.49912C1.57446 6.60779 0 5.12122 0 3.30402V3.30376C0 1.48656 1.57446 0 3.49912 0ZM3.49912 37.022H36.5009C38.4258 37.022 40 38.5086 40 40.3258V40.326C40 42.1432 38.4258 43.6298 36.5009 43.6298H3.49912C1.57446 43.6298 0 42.1432 0 40.326V40.3258C0 38.5086 1.57446 37.022 3.49912 37.022ZM3.49912 18.511H36.5009C38.4258 18.511 40 19.9976 40 21.8148V21.815C40 23.6322 38.4258 25.1188 36.5009 25.1188H3.49912C1.57446 25.1188 0 23.6322 0 21.815V21.8148C0 19.9976 1.57446 18.511 3.49912 18.511Z"/>
<!-- <g class="isolate">
    <circle cx="40" cy="40" r="40" fill="red" />
    <circle cx="80" cy="40" r="40" fill="lightgreen" />
    <circle cx="60" cy="80" r="40" fill="blue" />
  </g> -->
</svg>
