<svg viewBox="0 0 88 251" fill="none" xmlns="http://www.w3.org/2000/svg">
<path d="M37 250.444L0.636362 250.444L0.636361 228.498L4.54261 228.498L4.54261 246.041L16.8295 246.041L16.8295 229.635L20.7358 229.635L20.7358 246.041L33.0937 246.041L33.0937 228.214L37 228.214L37 250.444ZM0.636361 218.431L15.7642 209.056L15.7642 208.772L0.63636 199.397L0.63636 194.212L18.8182 205.647L37 194.212L37 199.397L22.1562 208.772L22.1562 209.056L37 218.431L37 223.615L18.8182 211.897L0.636361 223.615L0.636361 218.431ZM0.636359 184.078L37 184.078L37 188.481L0.636359 188.481L0.636359 184.078ZM0.636359 175.249L0.636359 169.993L30.821 157.635L30.821 157.209L0.636357 144.851L0.636357 139.596L37 139.596L37 143.715L9.37215 143.715L9.37215 144.07L37 155.434L37 159.411L9.37216 170.775L9.37216 171.13L37 171.13L37 175.249L0.636359 175.249ZM87 250.444L50.6364 250.444L50.6364 238.157C50.6364 235.305 51.1513 232.973 52.1811 231.162C53.1991 229.339 54.5781 227.989 56.3182 227.113C58.0582 226.237 59.9995 225.799 62.142 225.799C64.2846 225.799 66.2318 226.237 67.9837 227.113C69.7356 227.977 71.1323 229.315 72.174 231.126C73.2038 232.937 73.7187 235.257 73.7187 238.086L73.7187 246.893L69.8125 246.893L69.8125 238.228C69.8125 236.275 69.4751 234.707 68.8004 233.523C68.1257 232.339 67.2142 231.481 66.066 230.949C64.906 230.404 63.598 230.132 62.142 230.132C60.6861 230.132 59.384 230.404 58.2358 230.949C57.0876 231.481 56.188 232.345 55.5369 233.541C54.8741 234.736 54.5426 236.323 54.5426 238.299L54.5426 246.041L87 246.041L87 250.444ZM87 220.925L87 225.542L50.6364 212.19L50.6364 207.644L87 194.292L87 198.908L56.3892 209.775L56.3892 210.059L87 220.925ZM72.7955 219.221L72.7955 200.613L76.7017 200.613L76.7017 219.221L72.7955 219.221ZM87 188.628L50.6364 188.628L50.6364 176.341C50.6364 173.5 51.1217 171.168 52.0923 169.345C53.0511 167.522 54.371 166.173 56.0518 165.297C57.7327 164.421 59.6444 163.983 61.7869 163.983C63.9294 163.983 65.8293 164.421 67.4865 165.297C69.1437 166.173 70.4458 167.516 71.3928 169.327C72.3279 171.138 72.7955 173.453 72.7955 176.27L72.7955 186.213L68.8182 186.213L68.8182 176.412C68.8182 174.471 68.5341 172.908 67.9659 171.724C67.3977 170.529 66.5928 169.665 65.5511 169.132C64.4976 168.588 63.2429 168.315 61.7869 168.315C60.331 168.315 59.0585 168.588 57.9695 169.132C56.8804 169.677 56.04 170.547 55.4481 171.742C54.8445 172.938 54.5426 174.518 54.5426 176.483L54.5426 184.224L87 184.224L87 188.628ZM70.6648 171.511L87 162.562L87 167.676L70.6648 176.483L70.6648 171.511ZM54.5426 158.634L50.6364 158.634L50.6364 131.361L54.5426 131.361L54.5426 142.796L87 142.796L87 147.199L54.5426 147.199L54.5426 158.634ZM50.6364 95.7301L87 95.7301L87 99.9915L58.4489 119.807L58.4489 120.162L87 120.162L87 124.565L50.6364 124.565L50.6364 120.304L79.2585 100.418L79.2585 100.062L50.6364 100.062L50.6364 95.7301ZM87 86.9189L50.6364 86.9189L50.6364 64.9728L54.5426 64.9728L54.5426 82.5154L66.8295 82.5154L66.8295 66.1092L70.7358 66.1092L70.7358 82.5154L83.0937 82.5154L83.0937 64.6887L87 64.6887L87 86.9189ZM87 57.036L50.6364 57.036L50.6364 44.7491C50.6364 41.9082 51.1217 39.5763 52.0923 37.7534C53.0511 35.9305 54.371 34.581 56.0518 33.7051C57.7327 32.8291 59.6444 32.3912 61.7869 32.3912C63.9294 32.3912 65.8293 32.8291 67.4865 33.7051C69.1437 34.581 70.4458 35.9245 71.3927 37.7356C72.3279 39.5467 72.7954 41.8609 72.7954 44.6781L72.7954 54.6213L68.8182 54.6213L68.8182 44.8201C68.8182 42.8788 68.5341 41.3163 67.9659 40.1326C67.3977 38.9371 66.5928 38.073 65.5511 37.5403C64.4976 36.9958 63.2429 36.7235 61.7869 36.7235C60.331 36.7235 59.0585 36.9958 57.9694 37.5403C56.8804 38.0848 56.04 38.9548 55.4481 40.1504C54.8444 41.3459 54.5426 42.9262 54.5426 44.8912L54.5426 52.6326L87 52.6326L87 57.036ZM70.6648 39.9196L87 30.9707L87 36.0843L70.6648 44.8912L70.6648 39.9196ZM59.7273 5.16726C57.928 5.38032 56.5312 6.24443 55.5369 7.75958C54.5426 9.27474 54.0454 11.1332 54.0454 13.3349C54.0454 14.9447 54.3059 16.3533 54.8267 17.5607C55.3475 18.7563 56.0637 19.6914 56.9751 20.3661C57.8866 21.029 58.9223 21.3604 60.0824 21.3604C61.053 21.3604 61.8875 21.1296 62.5859 20.668C63.2725 20.1945 63.8466 19.5908 64.3082 18.8569C64.758 18.123 65.1309 17.3536 65.4268 16.5486C65.7109 15.7437 65.9417 15.0039 66.1193 14.3292L67.1136 10.636C67.3622 9.68904 67.7055 8.63553 68.1435 7.47549C68.5814 6.30362 69.1792 5.18501 69.9368 4.11967C70.6825 3.04249 71.6413 2.15471 72.8132 1.45632C73.9851 0.757926 75.4233 0.408731 77.1278 0.408731C79.0928 0.408731 80.8684 0.923645 82.4545 1.95347C84.0407 2.97147 85.3014 4.46295 86.2365 6.42791C87.1716 8.38103 87.6392 10.7544 87.6392 13.5479C87.6392 16.1521 87.219 18.4071 86.3785 20.3129C85.5381 22.2068 84.3662 23.6983 82.8629 24.7873C81.3596 25.8645 79.6136 26.4741 77.625 26.6161L77.625 22.0707C78.9981 21.9523 80.1345 21.4906 81.0341 20.6857C81.9219 19.869 82.5847 18.8391 83.0227 17.5962C83.4489 16.3415 83.6619 14.9921 83.6619 13.5479C83.6619 11.8671 83.3897 10.3578 82.8452 9.02024C82.2888 7.68264 81.5194 6.62322 80.5369 5.84197C79.5426 5.06072 78.3826 4.6701 77.0568 4.6701C75.8494 4.6701 74.8669 5.00745 74.1094 5.68217C73.3518 6.35689 72.7363 7.24467 72.2628 8.34552C71.7893 9.44637 71.375 10.636 71.0199 11.9144L69.7415 16.3888C68.9247 19.2298 67.7587 21.4788 66.2436 23.136C64.7284 24.7932 62.7457 25.6218 60.2954 25.6218C58.2595 25.6218 56.4839 25.0714 54.9687 23.9705C53.4417 22.8578 52.258 21.3664 51.4176 19.4961C50.5653 17.614 50.1392 15.5129 50.1392 13.1928C50.1392 10.8491 50.5594 8.76574 51.3998 6.94282C52.2284 5.11991 53.3648 3.67578 54.8089 2.61044C56.2531 1.53326 57.8925 0.965077 59.7273 0.905891L59.7273 5.16726Z" fill="black"/>
</svg>
