<svg viewBox="0 0 180 96" fill="none" xmlns="http://www.w3.org/2000/svg">
<path fill-rule="evenodd" clip-rule="evenodd" d="M7.63509 0H79.6505C83.8504 0 87.2862 3.24067 87.2862 7.20213V7.20327C87.2862 11.1647 83.8504 14.4048 79.6505 14.4048H7.63509C3.43522 14.4048 0 11.1647 0 7.20327V7.20213C0 3.24067 3.43522 0 7.63509 0ZM178.429 11.9603L149.466 47.5455L178.429 83.1312C180.986 86.2742 180.354 90.8176 177.023 93.2301C173.691 95.6426 168.874 95.0458 166.316 91.9028L139.839 59.3727L113.361 91.9028C110.804 95.0458 105.987 95.6426 102.655 93.2301C99.3232 90.8176 98.6898 86.2742 101.248 83.1312L122.417 57.1224L153.647 18.7547V18.7541L166.316 3.18869C168.873 0.0456891 173.691 -0.550585 177.022 1.86136C180.354 4.27444 180.987 8.81847 178.429 11.9603ZM127.505 44.2203L101.248 11.9603C98.6898 8.81847 99.3232 4.27444 102.655 1.86136C105.987 -0.550585 110.804 0.0456891 113.361 3.18869L137.14 32.4021L127.505 44.2203ZM7.63509 80.7072H79.6505C83.8504 80.7072 87.2862 83.9479 87.2862 87.9099C87.2862 91.8714 83.8504 95.1115 79.6505 95.1115H7.63509C3.43522 95.1115 0 91.8714 0 87.9099C0 83.9479 3.43522 80.7072 7.63509 80.7072ZM7.63509 40.3542H79.6505C83.8504 40.3542 87.2862 43.5943 87.2862 47.5557C87.2862 51.5172 83.8504 54.759 79.6505 54.759H7.63509C3.43522 54.759 0 51.5172 0 47.5557C0 43.5943 3.43522 40.3542 7.63509 40.3542Z" fill="black"/>
</svg>
