<svg viewBox="0 0 52 52" fill="none" xmlns="http://www.w3.org/2000/svg">
<path d="M1.52513 23.5251C0.158291 24.892 0.158291 27.108 1.52513 28.4749L23.799 50.7487C25.1658 52.1156 27.3819 52.1156 28.7487 50.7487C30.1156 49.3819 30.1156 47.1658 28.7487 45.799L8.94975 26L28.7487 6.20101C30.1156 4.83418 30.1156 2.6181 28.7487 1.25126C27.3819 -0.115572 25.1658 -0.115572 23.799 1.25126L1.52513 23.5251ZM4 29.5H6V22.5H4V29.5Z" fill="white"/>
<path d="M23.5251 23.5251C22.1583 24.892 22.1583 27.108 23.5251 28.4749L45.799 50.7487C47.1658 52.1156 49.3819 52.1156 50.7487 50.7487C52.1156 49.3819 52.1156 47.1658 50.7487 45.799L30.9497 26L50.7487 6.20101C52.1156 4.83418 52.1156 2.6181 50.7487 1.25126C49.3819 -0.115572 47.1658 -0.115572 45.799 1.25126L23.5251 23.5251ZM26 29.5H29V22.5H26V29.5Z" fill="white"/>
</svg>
