<svg viewBox="0 0 416 146" fill="none" xmlns="http://www.w3.org/2000/svg">
<path fill-rule="evenodd" clip-rule="evenodd" d="M15.0971 17.0479H100.896C105.9 17.0479 109.993 20.9305 109.993 25.6767C109.993 30.4228 105.9 34.3061 100.896 34.3061H15.0971C10.0933 34.3061 6 30.4235 6 25.6774C6 20.9312 10.0933 17.0479 15.0971 17.0479ZM311.492 73.3876L276.983 30.7535C273.937 26.9891 274.691 21.5447 278.66 18.6548C282.629 15.7642 288.368 16.4788 291.416 20.2439L322.961 59.2175L354.506 20.2439C356.506 17.7728 359.666 16.6162 362.723 16.9291L362.735 16.9304C367.308 17.3745 370.905 21.0644 370.905 25.5148V122.355C370.905 127.1 366.812 130.984 361.808 130.984C356.805 130.984 352.711 127.1 352.711 122.355V50.8032L343.718 61.9134L334.854 72.8657L323.513 86.8746L311.492 73.3876ZM257.792 26.4063V122.381C257.792 127.126 253.698 131.01 248.695 131.01C243.691 131.01 239.597 127.126 239.597 122.381V26.4063C239.597 21.6602 243.691 17.7776 248.695 17.7776C253.698 17.7776 257.792 21.6602 257.792 26.4063ZM218.582 31.3773L184.074 74.0114L218.583 116.646C221.629 120.411 220.875 125.855 216.907 128.745C212.937 131.635 207.197 130.92 204.15 127.156L172.605 88.1822L141.059 127.156C138.012 130.92 132.273 131.635 128.304 128.746C124.334 125.856 123.58 120.411 126.627 116.646L151.848 85.4863L189.056 39.5169L189.056 39.5162L204.15 20.8677C207.197 17.1033 212.936 16.388 216.906 19.2786C220.875 22.1692 221.629 27.6129 218.582 31.3773ZM157.91 70.027L126.627 31.3773C123.58 27.6129 124.335 22.1692 128.304 19.2786C132.273 16.388 138.012 17.1033 141.059 20.8677L169.389 55.8691L157.91 70.027ZM15.0971 113.742H100.896C105.9 113.742 109.993 117.625 109.993 122.371C109.993 127.117 105.9 131 100.896 131H15.0971C10.0933 131 6 127.117 6 122.371C6 117.625 10.0933 113.742 15.0971 113.742ZM15.0971 65.3949H100.896C105.9 65.3949 109.993 69.2775 109.993 74.0237C109.993 78.7698 105.9 82.6531 100.896 82.6531H15.0971C10.0933 82.6531 6 78.7705 6 74.0243C6 69.2782 10.0933 65.3949 15.0971 65.3949Z" fill="white"/>
</svg>
